<?xml version="1.0" encoding="utf-8"?>
<!-- Generator: Adobe Illustrator 21.0.0, SVG Export Plug-In . SVG Version: 6.00 Build 0)  -->
<svg version="1.1" id="图层_1" xmlns="http://www.w3.org/2000/svg" xmlns:xlink="http://www.w3.org/1999/xlink" x="0px" y="0px"
	 viewBox="0 0 32 32" style="enable-background:new 0 0 32 32;" xml:space="preserve">
<style vegetableType="text/css">
	.st0{fill:#9C967B;stroke:#857E69;stroke-width:2;stroke-miterlimit:10;}
	.st1{fill:none;stroke:#857E69;stroke-width:2;stroke-miterlimit:10;}
	.st2{fill:#857E69;}
	.st3{fill:url(#SVGID_1_);}
	.st4{fill:url(#SVGID_2_);}
	.st5{fill:url(#SVGID_3_);}
	.st6{fill:url(#SVGID_4_);}
</style>
<rect x="1" y="1" class="st0" width="30" height="30"/>
<line class="st1" x1="1" y1="16" x2="31" y2="16"/>
<line class="st1" x1="16" y1="1" x2="16" y2="31"/>
<rect x="7" y="7" class="st2" width="18" height="18"/>
<linearGradient id="SVGID_1_" gradientUnits="userSpaceOnUse" x1="5.5" y1="7" x2="5.5" y2="4">
	<stop  offset="0" style="stop-color:#9A926D"/>
	<stop  offset="1" style="stop-color:#857E69"/>
</linearGradient>
<rect x="4" y="4" class="st3" width="3" height="3"/>
<linearGradient id="SVGID_2_" gradientUnits="userSpaceOnUse" x1="5.5" y1="25" x2="5.5" y2="28">
	<stop  offset="0" style="stop-color:#9A926D"/>
	<stop  offset="1" style="stop-color:#857E69"/>
</linearGradient>
<rect x="4" y="25" class="st4" width="3" height="3"/>
<linearGradient id="SVGID_3_" gradientUnits="userSpaceOnUse" x1="26.5" y1="25" x2="26.5" y2="28">
	<stop  offset="0" style="stop-color:#9A926D"/>
	<stop  offset="1" style="stop-color:#857E69"/>
</linearGradient>
<rect x="25" y="25" class="st5" width="3" height="3"/>
<linearGradient id="SVGID_4_" gradientUnits="userSpaceOnUse" x1="26.5" y1="7" x2="26.5" y2="4">
	<stop  offset="0" style="stop-color:#9A926D"/>
	<stop  offset="1" style="stop-color:#857E69"/>
</linearGradient>
<rect x="25" y="4" class="st6" width="3" height="3"/>
<rect x="5" y="12" width="22" height="2"/>
<rect x="5" y="15" width="22" height="2"/>
<rect x="5" y="18" width="22" height="2"/>
<rect x="5" y="9" width="22" height="2"/>
<rect x="5" y="6" width="22" height="2"/>
<rect x="5" y="21" width="22" height="2"/>
<rect x="5" y="24" width="22" height="2"/>
</svg>
